HIERARCHY
ROOT Hips
{
	OFFSET 0.000000 0.000000 0.000000
	CHANNELS 6 Xposition Yposition Zposition Xrotation Yrotation Zrotation
	JOINT LeftUpLeg_virtual
	{
		OFFSET 0.000000 0.000000 0.000000
		CHANNELS 3 Xrotation Yrotation Zrotation
		JOINT LeftUpLeg
		{
			OFFSET 13.026900 -6.336304 -1.092800
			CHANNELS 3 Xrotation Yrotation Zrotation
			JOINT LeftLeg
			{
				OFFSET 0.524474 -46.096886 9.782700
				CHANNELS 3 Xrotation Yrotation Zrotation
				JOINT LeftFoot
				{
					OFFSET -0.524474 -53.427422 -12.948200
					CHANNELS 3 Xrotation Yrotation Zrotation
					JOINT LeftToeBase
					{
						OFFSET 0.192200 -14.009700 16.364100
						CHANNELS 3 Xrotation Yrotation Zrotation
						JOINT LeftToe_End
						{
							OFFSET -1.784700 -0.561700 9.474800
							CHANNELS 3 Xrotation Yrotation Zrotation
							End Site
							{
								OFFSET 0 0 0
							}
						}
					}
				}
			}
		}
	}
	JOINT RightUpLeg_virtual
	{
		OFFSET 0.000000 0.000000 0.000000
		CHANNELS 3 Xrotation Yrotation Zrotation
		JOINT RightUpLeg
		{
			OFFSET -12.883000 -6.336304 -1.092800
			CHANNELS 3 Xrotation Yrotation Zrotation
			JOINT RightLeg
			{
				OFFSET -0.524587 -46.096825 9.782800
				CHANNELS 3 Xrotation Yrotation Zrotation
				JOINT RightFoot
				{
					OFFSET 0.524587 -53.427383 -12.948300
					CHANNELS 3 Xrotation Yrotation Zrotation
					JOINT RightToeBase
					{
						OFFSET -0.192200 -14.009700 16.364100
						CHANNELS 3 Xrotation Yrotation Zrotation
						JOINT RightToe_End
						{
							OFFSET 1.784700 -0.561700 9.474800
							CHANNELS 3 Xrotation Yrotation Zrotation
							End Site
							{
								OFFSET 0 0 0
							}
						}
					}
				}
			}
		}
	}
	JOINT Spine_virtual
	{
		OFFSET 0.000000 0.000000 0.000000
		CHANNELS 3 Xrotation Yrotation Zrotation
		JOINT Spine
		{
			OFFSET 0.072000 7.257294 -0.789700
			CHANNELS 3 Xrotation Yrotation Zrotation
			JOINT Spine1
			{
				OFFSET 0.000000 12.508769 -0.658067
				CHANNELS 3 Xrotation Yrotation Zrotation
				JOINT Spine1_split
				{
					OFFSET 0.000000 12.508769 -0.658067
					CHANNELS 3 Xrotation Yrotation Zrotation
					JOINT Spine2
					{
						OFFSET 0.000000 12.508769 -0.658067
						CHANNELS 3 Xrotation Yrotation Zrotation
						JOINT Neck_virtual
						{
							OFFSET 0.000000 0.000000 0.000000
							CHANNELS 3 Xrotation Yrotation Zrotation
							JOINT Neck
							{
								OFFSET 0.000000 14.033295 7.520400
								CHANNELS 3 Xrotation Yrotation Zrotation
								JOINT Head
								{
									OFFSET 0.000000 8.198502 5.703100
									CHANNELS 3 Xrotation Yrotation Zrotation
									JOINT HeadTop_End
									{
										OFFSET 0.000000 17.760803 13.332701
										CHANNELS 3 Xrotation Yrotation Zrotation
										End Site
										{
											OFFSET 0 0 0
										}
									}
								}
							}
						}
						JOINT LeftShoulder_virtual
						{
							OFFSET 0.000000 0.000000 0.000000
							CHANNELS 3 Xrotation Yrotation Zrotation
							JOINT LeftShoulder
							{
								OFFSET 6.292450 5.785301 -0.669000
								CHANNELS 3 Xrotation Yrotation Zrotation
								JOINT LeftShoulder_split
								{
									OFFSET 6.292450 5.785301 -0.669000
									CHANNELS 3 Xrotation Yrotation Zrotation
									JOINT LeftArm
									{
										OFFSET 13.907140 -6.093903 1.965100
										CHANNELS 3 Xrotation Yrotation Zrotation
										JOINT LeftForeArm
										{
											OFFSET 34.140198 0.000000 0.000000
											CHANNELS 3 Xrotation Yrotation Zrotation
											JOINT LeftHand
											{
												OFFSET 40.960209 0.000000 0.000000
												CHANNELS 3 Xrotation Yrotation Zrotation
												End Site
												{
													OFFSET 0 0 0
												}
											}
										}
									}
								}
							}
						}
						JOINT RightShoulder_virtual
						{
							OFFSET 0.000000 0.000000 0.000000
							CHANNELS 3 Xrotation Yrotation Zrotation
							JOINT RightShoulder
							{
								OFFSET -6.292450 5.785301 -0.669000
								CHANNELS 3 Xrotation Yrotation Zrotation
								JOINT RightShoulder_split
								{
									OFFSET -6.292450 5.785301 -0.669000
									CHANNELS 3 Xrotation Yrotation Zrotation
									JOINT RightArm
									{
										OFFSET -13.907140 -6.093903 1.965100
										CHANNELS 3 Xrotation Yrotation Zrotation
										JOINT RightForeArm
										{
											OFFSET -34.140198 0.000000 0.000000
											CHANNELS 3 Xrotation Yrotation Zrotation
											JOINT RightHand
											{
												OFFSET -40.960209 0.000000 0.000000
												CHANNELS 3 Xrotation Yrotation Zrotation
												End Site
												{
													OFFSET 0 0 0
												}
											}
										}
									}
								}
							}
						}
					}
				}
			}
		}
	}
}
MOTION
Frames: 5
Frame Time: 0.03333333
125.529305 96.514023 243.173721 0.000000 0.000000 0.000000 -113.596359 -60.150860 -178.793575 -57.803310 -0.071970 32.670745 86.747480 -2.584204 -6.046036 15.926903 -10.252743 -0.726128 -2.659007 0.336923 -2.656617 0.000000 0.000000 0.000000 -92.652206 -67.053688 -163.545929 -55.540687 -4.698665 -44.971359 46.249144 7.575687 -5.942373 10.536863 -1.489309 12.601761 5.189461 0.550388 -2.011285 0.000000 0.000000 0.000000 -113.363320 -60.236681 -176.710190 15.232934 4.632108 3.316483 -2.337753 1.714386 6.724318 0.281383 1.588147 1.666278 0.000000 0.000000 0.000000 0.663166 1.692302 5.571857 19.620985 5.531172 11.287547 14.623471 38.578012 -20.128591 0.000000 0.000000 0.000000 0.209842 1.541285 6.266337 1.904855 -10.528746 10.501989 3.579651 1.815209 1.564721 1.487698 12.586275 -2.293931 4.274154 -35.532276 -0.101871 0.000000 0.000000 0.000000 -1.401675 2.134019 6.170667 2.013848 4.614051 17.528646 -0.572343 -1.158516 -0.345476 -21.600661 22.312783 16.511164 2.450390 21.756673 -2.276834 0.000000 0.000000 0.000000 
133.614059 88.691063 255.528717 0.000000 0.000000 0.000000 -113.630435 -56.694511 -178.747116 -57.718753 1.284174 30.179502 86.809020 -0.068658 -5.307069 18.647151 -6.872886 0.167983 -1.219468 0.085171 -1.919797 0.000000 0.000000 0.000000 -96.586880 -62.525198 -167.786466 -53.861250 -5.337398 -42.291271 39.446921 6.006540 -5.208723 15.465147 -3.752403 10.105876 4.722178 0.241510 -0.143625 0.000000 0.000000 0.000000 -114.225475 -56.467254 -178.703335 16.039268 4.643438 2.711305 -1.578245 2.605841 6.021739 0.209043 1.324311 1.983498 0.000000 0.000000 0.000000 0.647146 2.571494 4.739220 19.767346 5.607120 9.118213 14.367711 35.655247 -19.190207 0.000000 0.000000 0.000000 0.423906 2.348287 5.236812 2.209039 -9.963521 9.490227 1.877742 2.588706 1.472964 -1.244192 17.678509 -1.211449 4.493236 -36.340708 -0.008872 0.000000 0.000000 0.000000 -1.270185 3.124533 5.364630 1.686471 6.783447 19.245376 -0.933521 -3.039289 -0.341538 -23.203747 22.384767 19.180928 2.981583 28.745240 -2.071110 0.000000 0.000000 0.000000 
141.909821 77.822769 268.970032 0.000000 0.000000 0.000000 -114.587236 -50.316733 -178.893227 -56.935518 3.341820 28.126290 85.026792 2.683258 -3.953737 19.320232 -2.624144 -1.487198 -0.215142 -0.089945 -0.708526 0.000000 0.000000 0.000000 -102.542579 -55.602651 -173.696055 -54.187760 -1.265810 -37.298625 34.097872 4.697207 -5.282067 20.391701 -4.154658 9.943050 4.145427 -0.162172 1.449719 0.000000 0.000000 0.000000 -114.334512 -50.697021 -179.214574 17.057288 4.150349 1.988680 -0.670002 3.376211 5.776048 0.699137 0.932462 2.016863 0.000000 0.000000 0.000000 0.605317 3.440959 4.471490 19.080007 5.300087 7.257108 13.603693 32.403988 -17.871584 0.000000 0.000000 0.000000 0.677923 3.151731 4.871407 2.397845 -8.154775 7.818129 1.127525 3.541702 0.399240 -4.550041 23.304978 -0.564111 3.890360 -43.324815 -0.304255 0.000000 0.000000 0.000000 -1.177560 4.033917 5.189743 1.419214 8.131614 20.425590 -1.098983 -3.770881 0.126131 -25.890662 20.879033 22.763526 2.849425 37.752802 -1.325137 0.000000 0.000000 0.000000 
150.298370 64.135994 282.756226 0.000000 0.000000 0.000000 -116.267155 -41.026371 -179.348746 -56.401807 6.253194 27.555281 81.401894 4.387930 -2.003756 18.582395 1.084210 -5.279293 -0.169564 -0.262898 0.954142 0.000000 0.000000 0.000000 -107.723899 -46.306613 -179.020747 -58.280030 5.946813 -29.747567 31.764734 4.436200 -6.008269 24.325328 -1.918286 12.469266 3.218994 -0.523379 1.974997 0.000000 0.000000 0.000000 -114.111718 -43.034686 -179.224055 18.144666 2.967074 1.199758 0.307057 3.822734 6.065208 0.997915 -0.648049 1.877668 0.000000 0.000000 0.000000 0.668611 4.115968 4.811761 18.126339 4.619762 5.974414 12.379385 28.720481 -16.258977 0.000000 0.000000 0.000000 0.982110 3.832355 5.246676 2.627986 -6.047567 5.383644 1.724786 4.023358 -1.105654 -6.741434 27.792178 -1.101138 2.891413 -54.872763 -0.954068 0.000000 0.000000 0.000000 -1.038052 4.728712 5.741890 1.341481 8.252993 21.038079 -1.216642 -3.227151 0.549753 -28.567469 18.245862 26.962102 1.634301 47.487635 0.210586 0.000000 0.000000 0.000000 
158.714111 49.649399 296.200897 0.000000 0.000000 0.000000 -117.777706 -30.213294 -179.996276 -57.977699 9.669348 29.655947 77.420235 4.528601 -0.436958 17.795184 4.054718 -9.457864 -0.333907 -0.320639 2.547101 0.000000 0.000000 0.000000 -110.889733 -35.357273 177.459024 -67.334231 12.671066 -19.206422 34.116706 4.757208 -6.943526 26.286688 1.848019 16.312426 1.972260 -0.757494 1.381728 0.000000 0.000000 0.000000 -113.732793 -33.751755 -178.994314 19.089115 1.266859 0.531482 1.225078 3.940477 6.683446 1.153808 -2.188393 1.760677 0.000000 0.000000 0.000000 0.861083 4.497005 5.489142 17.673932 3.471407 5.536356 11.484098 24.642341 -14.766000 0.000000 0.000000 0.000000 1.378797 4.215177 6.029609 3.044690 -4.322084 2.173709 3.453370 3.382941 -2.241263 -7.055378 28.505929 -2.910572 2.946655 -65.727962 -1.039631 0.000000 0.000000 0.000000 -0.641670 5.134195 6.647754 1.453525 6.821499 21.483580 -1.311210 -2.124636 0.739049 -30.068422 15.577288 31.188990 -0.825202 56.292872 2.533352 0.000000 0.000000 0.000000 
